<?xml version="1.0" encoding="UTF-8" standalone="no"?>
<!-- Created with Inkscape (http://www.inkscape.org/) -->

<svg
   xmlns:dc="http://purl.org/dc/elements/1.1/"
   xmlns:cc="http://creativecommons.org/ns#"
   xmlns:rdf="http://www.w3.org/1999/02/22-rdf-syntax-ns#"
   xmlns:svg="http://www.w3.org/2000/svg"
   xmlns="http://www.w3.org/2000/svg"
   xmlns:sodipodi="http://sodipodi.sourceforge.net/DTD/sodipodi-0.dtd"
   xmlns:inkscape="http://www.inkscape.org/namespaces/inkscape"
   id="svg3336"
   version="1.1"
   inkscape:version="0.91 r13725"
   width="2538.3821"
   height="371.08011"
   viewBox="0 0 2538.3821 371.08011"
   sodipodi:docname="Reshwap.svg"
   inkscape:export-filename="C:\Users\Eric\Google Drive\Reshwap.png"
   inkscape:export-xdpi="99.924515"
   inkscape:export-ydpi="99.924515">
  <metadata
     id="metadata3342">
    <rdf:RDF>
      <cc:Work
         rdf:about="">
        <dc:format>image/svg+xml</dc:format>
        <dc:type
           rdf:resource="http://purl.org/dc/dcmitype/StillImage" />
        <dc:title></dc:title>
      </cc:Work>
    </rdf:RDF>
  </metadata>
  <defs
     id="defs3340" />
  <sodipodi:namedview
     pagecolor="#ffffff"
     bordercolor="#666666"
     borderopacity="1"
     objecttolerance="10"
     gridtolerance="10"
     guidetolerance="10"
     inkscape:pageopacity="0"
     inkscape:pageshadow="2"
     inkscape:window-width="1839"
     inkscape:window-height="1051"
     id="namedview3338"
     showgrid="false"
     fit-margin-top="0"
     fit-margin-left="0"
     fit-margin-right="0"
     fit-margin-bottom="0"
     inkscape:zoom="0.286"
     inkscape:cx="703.82559"
     inkscape:cy="105.6045"
     inkscape:window-x="-9"
     inkscape:window-y="-9"
     inkscape:window-maximized="1"
     inkscape:current-layer="svg3336" />
  <path
     style="fill:#000000"
     d="m 757.00042,313.5 0,-57.5 8.77923,0 8.77924,0 1.26449,8.0362 c 4.15134,26.3832 18.51564,50.2097 38.50374,63.8674 6.3076,4.3099 19.6166,10.3985 27.1733,12.4313 8.5807,2.3082 24.8565,3.9259 31.9401,3.1746 18.5418,-1.9665 31.5445,-9.6188 38.6695,-22.7574 3.2417,-5.9778 3.3904,-6.7128 3.3904,-16.7521 0,-10.0787 -0.1387,-10.7559 -3.457,-16.877 -4.3688,-8.0588 -12.7549,-16.4736 -23.6273,-23.7078 -4.667,-3.1053 -24.7823,-13.5253 -44.7006,-23.1554 -19.9183,-9.63 -39.8657,-19.8776 -44.3275,-22.7724 -26.033,-16.8897 -41.44124,-43.0822 -41.37024,-70.3254 0.0535,-20.5157 11.09265,-41.7458 28.61834,-55.0375 32.7011,-24.801 83.7742,-25.4041 120.0845,-1.418 2.8711,1.8966 5.6937,3.1558 6.2724,2.7981 1.6449,-1.0167 6.7966,-11.7818 8.0831,-16.8908 l 1.1617,-4.6138 7.8813,0 7.8813,0 0,49 0,49 -9,0 c -8.6659,0 -9.0001,-0.083 -9.0025,-2.25 -0.01,-4.8366 -5.2878,-21.6959 -9.4779,-30.25 -5.2973,-10.8144 -11.5457,-18.9215 -19.2349,-24.9565 -12.0624,-9.4674 -24.3683,-13.4953 -41.3246,-13.5261 -20.8271,-0.038 -37.151,8.4208 -43.6513,22.6193 -2.2227,4.855 -2.4942,6.5671 -2.0968,13.2203 0.7582,12.6895 6.3928,20.7608 21.5202,30.8262 4.6068,3.0653 26.9142,14.5563 49.5719,25.5356 22.6578,10.9793 44.3459,22.027 48.1959,24.5504 9.4448,6.1905 23.1755,20.1487 28.2668,28.735 8.3439,14.0719 11.9569,28.519 10.8903,43.5456 -0.6815,9.6015 -4.36,23.4479 -8.3039,31.2577 -21.1163,41.8142 -76.647,62.1825 -125.8628,46.1657 -11.2886,-3.6738 -24.6144,-10.2036 -34.2201,-16.7685 l -8.2297,-5.6245 -2.4101,3.2099 c -3.4734,4.6262 -8.35665,14.7367 -9.70616,20.0961 l -1.16177,4.6138 -7.88128,0 -7.88129,0 0,-57.5 z m 788.12498,-56.75 c -22.198,-62.8375 -42.5494,-118.9042 -45.2254,-124.5927 -6.1108,-12.9901 -10.5777,-19.1006 -17.6816,-24.1876 -7.5191,-5.3843 -16.2796,-7.966 -29.468,-8.684 l -10.75,-0.5853 0,-7.8502 0,-7.8502 79,0 79,0 0,7.8564 0,7.8564 -10.25,0.5711 c -5.6375,0.3142 -12.6188,1.2981 -15.5141,2.1866 -5.7286,1.7579 -11.5011,6.2079 -13.787,10.6283 -1.704,3.2951 -1.9345,15.4773 -0.4049,21.4012 1.5162,5.8725 47.3677,133.4812 47.956,133.466 0.275,-0.01 15.7533,-41.4024 34.3962,-91.9895 L 1676.2927,83 l 9.6039,0.011 9.6038,0.011 31.9192,90.7389 c 17.5556,49.9064 32.4165,91.7482 33.0243,92.9818 0.9567,1.9419 4.2526,-6.4433 24.5664,-62.5 12.9039,-35.6086 24.2295,-67.6679 25.1682,-71.2429 3.6777,-14.0074 1.4232,-23.8328 -6.5241,-28.4324 -5.8091,-3.3621 -11.5754,-4.7173 -23.154,-5.4418 l -10,-0.6258 -0.2921,-7.75 -0.292,-7.75 66.042,0 66.0421,0 0,8 0,8 -7.5422,0 c -9.457,0 -21.2976,2.4003 -28.4578,5.7688 -11.3144,5.323 -20.955,17.8253 -29.216,37.8885 -2.8737,6.9793 -73.3205,200.7127 -81.5009,224.1328 l -1.4984,4.2902 -7.5705,-0.2902 -7.5704,-0.2901 -29.798,-85 c -38.8943,-110.9473 -36.9554,-105.5503 -37.7443,-105.0627 -0.3772,0.2331 -16.4168,43.2022 -35.6436,95.487 l -34.9579,95.0631 -7.5075,0.01 -7.5076,0.01 -40.3599,-114.25 z M 4e-4,352.0933 l 0,-7.9067 9.75,-0.6437 C 48.845,340.9617 59.71591,329.7356 64.02049,287.5 64.8018,279.8339 65.01555,244.8281 64.72575,172 64.36867,82.2666 64.08733,66.3334 62.73476,59.2442 56.7267,27.7543 45.6547,18.543 11.2504,16.4121 L 4e-4,15.7153 4e-4,7.8577 4e-4,0 95.25042,0.02 c 77.04238,0.016 97.31348,0.2942 106.04471,1.4563 53.64545,7.1402 89.88301,34.553 101.15886,76.5242 2.27959,8.4851 3.23243,32.7475 1.62071,41.2683 -8.04116,42.5119 -40.79382,72.7465 -89.48375,82.6041 -4.76634,0.9649 -8.76158,1.9979 -8.8783,2.2954 -0.11673,0.2975 12.35873,15.7939 27.72323,34.4365 30.92899,37.5279 55.77493,63.5544 72.77829,76.2365 18.4551,13.7649 36.3437,22.9725 51.78837,26.6564 4.12383,0.9837 8.06038,1.9351 8.74788,2.1143 0.86934,0.2265 1.25,2.7742 1.25,8.3658 l 0,8.0401 -53.63795,-0.2587 -53.63794,-0.2587 -56.48074,-77.25 -56.48075,-77.25 -11.38131,0 -11.38131,0 0.003,35.25 c 0.004,37.7184 0.95217,53.3404 4.04038,66.5448 6.07653,25.9816 18.02638,34.5574 51.2062,36.7481 l 9.75,0.6437 0,7.9067 0,7.9067 -95,0 -95,0 0,-7.9067 z M 192.3009,172.1111 c 22.49483,-5.9264 37.56049,-20.7413 44.85766,-44.1111 2.0913,-6.6976 2.34186,-9.4258 2.34186,-25.5 0,-20.2724 -1.26779,-26.3838 -8.29785,-40 C 226.5951,53.576 214.91277,41.6965 206.31437,37.1918 194.16215,30.8252 188.25614,30 154.84046,30 l -29.84004,0 0,72.6436 0,72.6436 29.75,-0.5605 c 25.6333,-0.483 30.8294,-0.8449 37.55048,-2.6156 z m 208.90746,180.1389 0.29206,-7.75 11.5,-0.6089 c 17.70533,-0.9374 24.86017,-3.5172 31.88331,-11.4959 4.66088,-5.295 7.35729,-12.7005 9.04653,-24.8457 1.39891,-10.0579 1.42846,-163.2562 0.0334,-173.0495 -2.83531,-19.9035 -9.10379,-28.6651 -23.72319,-33.1587 -2.60704,-0.8013 -10.14005,-1.7684 -16.74005,-2.1491 l -12,-0.6922 -0.29206,-7.75 -0.29207,-7.75 122.49675,0 122.49675,0 0.51425,3.25 c 0.42299,2.6733 5.60909,71.4422 5.58404,74.0457 -0.004,0.4376 -2.98877,0.6626 -6.63234,0.5 L 638.75105,160.5 635.42182,148.3077 C 630.12902,128.9244 625.02103,120.8492 614.8082,115.7195 602.54463,109.5599 588.54783,108 545.53983,108 l -32.53941,0 0,46.5 0,46.5 11.89405,0 c 15.59354,0 30.56293,-1.5885 38.72414,-4.1092 4.92288,-1.5205 7.66377,-3.1201 10.9118,-6.3682 5.57111,-5.5711 7.36913,-11.467 8.16464,-26.7726 l 0.6107,-11.75 7.84734,0 7.84733,0 0,62 0,62 -8,0 -8,0 0,-7.0584 c 0,-14.0048 -2.9376,-25.6931 -7.86651,-31.2997 -2.68477,-3.0539 -10.8778,-6.6893 -18.48845,-8.2037 -3.92977,-0.782 -15.40869,-1.7228 -25.50871,-2.0907 l -18.36368,-0.6691 0.52338,35.4108 c 0.56703,38.3641 1.38792,45.6567 6.26044,55.6157 3.05204,6.2382 7.92262,10.5164 15.44353,13.5654 5.3217,2.1574 6.60224,2.2286 39.5,2.1953 36.86821,-0.037 43.9762,-0.7901 54.96429,-5.8206 11.69779,-5.3554 17.07223,-13.3535 22.77437,-33.892 l 3.26134,-11.7471 6.33532,0 6.33532,0 -0.612,7.25 c -0.51902,6.1427 -4.55864,68.2847 -4.55864,70.1203 0,0.3431 -58.96893,0.6238 -131.04206,0.6238 l -131.04207,0 0.29207,-7.75 z m 636.79204,-0.25 0,-8 9.25,-0.017 c 23.4362,-0.044 35.6179,-7.1022 40.7097,-23.5877 3.7369,-12.0986 4.1953,-25.0501 3.7833,-106.8949 -0.3526,-70.0365 -0.5721,-78.7601 -2.1496,-85.4445 -3.0027,-12.7237 -8.0173,-20.1206 -16.676,-24.5982 -4.5735,-2.365 -17.0151,-4.4573 -26.5054,-4.4573 l -8.412,0 0,-8 0,-8 83,0 83,0 0,8 0,8 -8.25,0.01 c -17.7794,0.016 -28.1627,3.3209 -35.2691,11.2249 -8.4676,9.418 -10.4809,21.326 -10.4809,61.9913 l 0,27.7762 72.5913,0 72.5914,0 -0.453,-33.25 c -0.4864,-35.7 -1.0815,-40.5906 -6.1583,-50.6092 -2.5363,-5.0051 -7.5099,-10.0234 -12.4828,-12.595 -4.6112,-2.3845 -11.7883,-3.726 -23.5886,-4.4091 l -11,-0.6367 -0.2921,-7.75 -0.292,-7.75 83.042,0 83.0421,0 0,8 0,8 -8.412,0 c -21.4963,0 -34.0793,5.8076 -39.5915,18.2733 -5.2786,11.9373 -5.3105,12.4693 -5.7388,95.7267 -0.4793,93.1637 0.2291,104.0726 7.5265,115.9026 6.2243,10.0903 15.3891,14.1011 33.9658,14.8642 l 12.25,0.5032 0,7.865 0,7.865 -83.0421,0 -83.042,0 0.292,-7.75 0.2921,-7.75 12,-0.6341 c 21.1391,-1.117 30.3268,-6.1775 36.483,-20.0945 3.9682,-8.9709 5.0048,-21.5933 5.0111,-61.0214 l 0.01,-36.75 -72.5,0 -72.5,0 0.01,36.75 c 0,27.4802 0.3826,39.2494 1.4994,46.6588 3.8332,25.4321 15.2018,34.5212 43.2447,34.5738 l 9.25,0.017 0,8 0,8 -83,0 -83,0 0,-8 z m 845,0 0,-8 8.25,-0.017 c 9.7548,-0.021 19.843,-1.9797 25.894,-5.0288 12.9232,-6.512 19.3411,-15.9423 38.2546,-56.2111 7.8124,-16.6335 33.3062,-70.8448 56.6529,-120.4697 l 42.4485,-90.227 7.558,-0.023 7.5581,-0.023 52.8235,113.25 c 29.0529,62.2875 55.2317,117.8027 58.1751,123.3671 8.8099,16.655 16.7531,26.0211 26.0857,30.7584 5.0704,2.5738 15.1701,4.5937 23.0496,4.6097 l 7.25,0.015 0,8 0,8 -80.5421,0 -80.542,0 0.292,-7.75 0.2921,-7.75 12,-0.6675 c 24.3813,-1.3563 33.5448,-7.7412 32.1742,-22.4183 -0.6591,-7.0581 -3.7829,-15.4851 -13.4982,-36.4142 l -6.731,-14.5 -54.0927,-0.2585 -54.0928,-0.2586 -8.7676,19.2586 c -15.4306,33.8942 -16.4773,40.174 -7.9449,47.6656 4.9387,4.3363 12.0926,6.1613 26.703,6.8123 l 12.75,0.568 0,7.8563 0,7.8563 -66,0 -66,0 0,-8 z m 198.6497,-120.25 c -3.4473,-7.2875 -12.7292,-27.1021 -20.6264,-44.0323 -7.8972,-16.9303 -14.7,-30.4303 -15.1172,-30 -0.5909,0.6094 -38.3862,80.6961 -40.6012,86.0323 -0.4102,0.9883 8.1842,1.25 41.0468,1.25 l 41.5657,0 -6.2677,-13.25 z m 198.5582,120.5 0.2921,-7.75 11.5,-0.5905 c 27.6825,-1.4216 36.8624,-9.3296 41.1047,-35.4095 1.6182,-9.948 2.4182,-136.2685 1.0088,-159.2899 -2.3954,-39.1275 -10.1244,-48.3376 -42.0246,-50.0779 l -11.5889,-0.6322 -0.2928,-7.7923 -0.2929,-7.7924 84.7929,0.327 c 93.5885,0.3608 92.187,0.2745 113.2928,6.9805 25.1106,7.9784 43.8555,22.4816 52.8968,40.9269 5.7873,11.807 7.5018,19.2171 7.4847,32.3503 -0.051,39.0863 -27.302,66.8272 -76.2658,77.6366 -8.2631,1.8242 -13.8709,2.1886 -39.8657,2.5908 l -30.25,0.4681 0.01,22.6522 c 0.01,23.3035 1.1744,41.8764 3.139,50.0169 1.7789,7.3707 6.8649,16.1319 11.1791,19.2571 7.1295,5.1646 13.9973,7.0773 27.4233,7.6373 l 12.25,0.511 0,7.865 0,7.865 -83.0421,0 -83.042,0 0.292,-7.75 z m 161.7921,-135.2197 c 17.6406,-4.5158 31.5983,-19.2302 36.0749,-38.0303 1.853,-7.7824 1.5792,-25.0551 -0.5232,-33 -4.5346,-17.1357 -14.7945,-28.7182 -31.0517,-35.0545 -5.5722,-2.1717 -7.7289,-2.3666 -30.25,-2.7328 l -24.25,-0.3944 0,55.7086 0,55.7087 22.75,-0.5267 c 12.5125,-0.2897 24.775,-1.0451 27.25,-1.6786 z"
     id="path3346"
     inkscape:connector-curvature="0" />
</svg>
